<svg xmlns="http://www.w3.org/2000/svg" viewBox="0 0 96 96" width="96" height="96" role="img" aria-labelledby="title desc">
  <title id="title">理账 Ledger Icon Gray</title>
  <desc id="desc">A grayscale RE8CH-style geometric ledger icon.</desc>
  <path d="M18 20Q18 14 24 14H66Q78 14 78 26V80H31Q18 80 18 67Z" fill="#20242a"/>
  <path d="M26 22H65Q70 22 70 27V63H34Q26 63 26 55Z" fill="#f3f4f6"/>
  <path d="M25 21H65Q71 21 71 27V36H25Z" fill="#6b7280"/>
  <path d="M25 36H71V63H34Q25 63 25 54Z" fill="#ffffff"/>
  <path d="M28 70Q28 65 34 65H78V80H34Q28 80 28 74Z" fill="#7b818b"/>
  <path d="M18 22Q18 15 25 15H33V80H31Q18 80 18 67Z" fill="#535963"/>
  <path d="M33 65H78V72H35Q31 72 31 75Q31 78 35 78H78V80H31Q25 80 25 73Q25 65 33 65Z" fill="#20242a"/>
  <path d="M43 45H58M43 53H55" stroke="#20242a" stroke-width="5" stroke-linecap="round"/>
  <path d="M58 50L64 56L76 42" fill="none" stroke="#9ca3af" stroke-width="7" stroke-linecap="round" stroke-linejoin="round"/>
  <path d="M58 50L64 56L76 42" fill="none" stroke="#20242a" stroke-width="11" stroke-linecap="round" stroke-linejoin="round" opacity=".18"/>
</svg>
