<svg xmlns="http://www.w3.org/2000/svg" viewBox="0 0 96 96" width="96" height="96" role="img" aria-labelledby="title desc">
  <title id="title">Any Site on Earth Icon Flat</title>
  <desc id="desc">A no-black-outline RE8CH-style rocket and orbit mark.</desc>
  <path d="M17 61C28 77 66 82 81 58" fill="none" stroke="#2563eb" stroke-width="6" stroke-linecap="round"/>
  <path d="M21 50C34 30 61 22 78 34" fill="none" stroke="#00b559" stroke-width="6" stroke-linecap="round"/>
  <path d="M48 12C61 24 67 44 61 64H35C29 44 35 24 48 12Z" fill="#f8fafc"/>
  <path d="M48 12C56 21 61 31 63 43H33C35 31 40 21 48 12Z" fill="#2563eb"/>
  <circle cx="48" cy="41" r="9" fill="#ffd619"/>
  <path d="M35 61L22 74H41L44 63Z" fill="#f81018"/>
  <path d="M61 61L74 74H55L52 63Z" fill="#00b559"/>
  <path d="M41 67C42 75 46 81 48 84C50 81 54 75 55 67Z" fill="#ffd619"/>
  <path d="M13 35L18 37L23 35L21 40L23 45L18 43L13 45L15 40Z" fill="#ffd619"/>
</svg>
