<svg xmlns="http://www.w3.org/2000/svg" viewBox="0 0 96 96" width="96" height="96" role="img" aria-labelledby="title desc">
  <title id="title">Aesthete Icon Gray</title>
  <desc id="desc">A grayscale Greek aesthetic column and face scan product mark for Aesthete.</desc>
  <rect x="12" y="12" width="72" height="72" rx="18" fill="#f8fafc" stroke="#1f2937" stroke-width="4.5"/>
  <path d="M25 29h46M30 22h36M30 36h36" fill="none" stroke="#1f2937" stroke-width="5.5" stroke-linecap="round"/>
  <path d="M34 37v31M62 37v31" fill="none" stroke="#64748b" stroke-width="7" stroke-linecap="round"/>
  <path d="M42 39c-6 5.7-8.5 13.5-7.2 23.3 1.3 9.6 6.2 14.4 13.2 14.4s11.9-4.8 13.2-14.4C62.5 52.5 60 44.7 54 39" fill="#e2e8f0" stroke="#1f2937" stroke-width="4.5" stroke-linecap="round" stroke-linejoin="round"/>
  <path d="M38 55c4.4-3.6 8.1-5.4 11-5.4s6.6 1.8 11 5.4" fill="none" stroke="#64748b" stroke-width="5.5" stroke-linecap="round"/>
  <path d="M31 68h34M27 75h42" fill="none" stroke="#1f2937" stroke-width="5.5" stroke-linecap="round"/>
  <path d="M69 34c5.4 3.7 8.1 8.4 8.1 14.1S74.4 58.8 69 62.5" fill="none" stroke="#94a3b8" stroke-width="5" stroke-linecap="round"/>
  <path d="M20 43c3.3-5.5 7.9-9.1 13.6-10.8" fill="none" stroke="#94a3b8" stroke-width="5" stroke-linecap="round"/>
</svg>
