<svg xmlns="http://www.w3.org/2000/svg" viewBox="0 0 96 96" width="96" height="96" role="img" aria-labelledby="title desc">
  <title id="title">Anycam / 任意相机 Icon</title>
  <desc id="desc">SF Symbols-inspired RE8CH camera product mark.</desc>
  <path d="M13 35Q13 26 22 26H33L39 18H58L64 26H74Q83 26 83 35V72Q83 81 74 81H22Q13 81 13 72Z" fill="#1f2937"/>
  <path d="M21 36H38L44 28H54L60 36H75V71H21Z" fill="#f8fafc"/>
  <path d="M21 36H38L44 28H54L60 36H75V45H21Z" fill="#334155"/>
  <circle cx="49" cy="58" r="25" fill="#1f2937"/>
  <circle cx="49" cy="58" r="19" fill="#64748b"/>
  <circle cx="49" cy="58" r="12" fill="#64748b"/>
  <circle cx="49" cy="58" r="6" fill="#cbd5e1"/>
  <path d="M25 39H34V46H25Z" fill="#334155"/>
  <path d="M66 46H75V57H70V51H66Z" fill="#334155"/>
  <circle cx="32" cy="42" r="4" fill="#334155"/>
  <circle cx="42" cy="53" r="4" fill="#f8fafc" opacity=".72"/>
</svg>
