<svg xmlns="http://www.w3.org/2000/svg" viewBox="0 0 96 96" width="96" height="96" role="img" aria-labelledby="title desc">
  <title id="title">Anycam 任意相机 Icon No Edge</title>
  <desc id="desc">A no-edge RE8CH-style camera lens product icon for Anycam.</desc>
  <path d="M21 30H38L44 22H54L60 30H75V74H21Z" fill="#f8fafc"/>
  <path d="M21 30H38L44 22H54L60 30H75V40H21Z" fill="#2563eb"/>
  <path d="M21 40H75V74H21Z" fill="#ffffff"/>
  <circle cx="49" cy="56" r="24" fill="#0f172a"/>
  <circle cx="49" cy="56" r="19" fill="#00b559"/>
  <circle cx="49" cy="56" r="13" fill="#0a7fbe"/>
  <circle cx="49" cy="56" r="7" fill="#ffd619"/>
  <path d="M25 34H35V40H25Z" fill="#f81018"/>
  <path d="M63 22H75V40H71Q71 28 63 22Z" fill="#00b559"/>
  <path d="M37 53H28V45H34V49H37ZM61 53H70V45H64V49H61ZM37 59H28V67H34V63H37ZM61 59H70V67H64V63H61Z" fill="#f8fafc"/>
</svg>
