<svg xmlns="http://www.w3.org/2000/svg" viewBox="0 0 96 96" width="96" height="96" role="img" aria-labelledby="title desc">
  <title id="title">Anycam 任意相机 Icon Gray</title>
  <desc id="desc">A grayscale RE8CH-style camera lens product icon for Anycam.</desc>
  <path d="M13 30Q13 22 21 22H34L40 14H57L63 22H75Q83 22 83 30V74Q83 82 75 82H21Q13 82 13 74Z" fill="#20242a"/>
  <path d="M21 30H38L44 22H54L60 30H75V74H21Z" fill="#f3f4f6"/>
  <path d="M21 30H38L44 22H54L60 30H75V40H21Z" fill="#6b7280"/>
  <path d="M21 40H75V74H21Z" fill="#ffffff"/>
  <circle cx="49" cy="56" r="24" fill="#20242a"/>
  <circle cx="49" cy="56" r="19" fill="#7b818b"/>
  <circle cx="49" cy="56" r="13" fill="#9ca3af"/>
  <circle cx="49" cy="56" r="7" fill="#d1d5db"/>
  <path d="M25 34H35V40H25Z" fill="#535963"/>
  <path d="M63 22H75Q83 22 83 30V40H71Q71 28 63 22Z" fill="#7b818b"/>
  <path d="M37 53H28V45H34V49H37ZM61 53H70V45H64V49H61ZM37 59H28V67H34V63H37ZM61 59H70V67H64V63H61Z" fill="#f3f4f6"/>
</svg>
