<svg xmlns="http://www.w3.org/2000/svg" viewBox="0 0 1024 1024" width="1024" height="1024" role="img" aria-labelledby="title desc">
  <title id="title">立账 AI Ledger Icon Invert</title>
  <desc id="desc">Inverted RE8CH style icon for 立账, an AI finance and ledger system.</desc>
  <path fill="#fdfdfd" d="M184 158 Q184 116 226 116 L708 116 Q744 116 770 142 L858 231 Q884 257 884 294 L884 792 Q884 850 827 870 L252 870 Q194 870 164 820 L118 742 Q101 713 118 684 L184 574 Z"/>
  <path fill="#07efe7" d="M230 166 L682 166 Q708 166 727 184 L807 263 L352 263 Q328 263 311 280 L230 360 Z"/>
  <path fill="#f58041" d="M218 198 L326 276 L326 744 L182 712 L182 236 Q182 210 207 198 Z"/>
  <path fill="#fdfdfd" d="M312 244 L825 244 Q857 244 857 276 L857 786 Q857 824 820 836 L252 836 Q219 836 219 803 L219 356 Q219 328 239 308 Z"/>
  <path fill="#141414" d="M350 294 L807 294 L807 765 L270 765 L270 366 Z"/>
  <path fill="#ff4aa6" d="M270 765 L435 610 L541 676 L688 487 L807 592 L807 765 Z"/>
  <path fill="#fdfdfd" d="M359 641 L434 569 L535 632 L681 444 L820 566 L790 601 L688 511 L548 691 L439 623 L313 742 Z"/>
  <path fill="#fdfdfd" d="M578 289 L686 289 L686 378 L768 378 L768 488 L686 488 L686 576 L578 576 L578 488 L496 488 L496 378 L578 378 Z M622 335 L622 424 L542 424 L542 442 L622 442 L622 530 L642 530 L642 442 L722 442 L722 424 L642 424 L642 335 Z" fill-rule="evenodd"/>
  <path fill="#0029e6" d="M622 335 L642 335 L642 424 L722 424 L722 442 L642 442 L642 530 L622 530 L622 442 L542 442 L542 424 L622 424 Z"/>
  <path fill="#fdfdfd" d="M389 359 L490 359 L490 409 L389 409 Z M389 450 L490 450 L490 499 L389 499 Z M389 541 L490 541 L490 590 L389 590 Z"/>
  <path fill="#ffffff" opacity=".18" d="M353 318 L764 318 L764 350 L353 350 Z"/>
</svg>
