<svg xmlns="http://www.w3.org/2000/svg" viewBox="0 0 1024 1024" width="1024" height="1024" role="img" aria-labelledby="title desc">
  <title id="title">立账 AI Ledger Icon No Edge</title>
  <desc id="desc">No-edge RE8CH style icon for 立账, an AI finance and ledger system.</desc>
  <path fill="#f81018" d="M230 166 L682 166 Q708 166 727 184 L807 263 L352 263 Q328 263 311 280 L230 360 Z"/>
  <path fill="#0a7fbe" d="M218 198 L326 276 L326 744 L182 712 L182 236 Q182 210 207 198 Z"/>
  <path fill="#fff7d7" d="M350 294 L807 294 L807 765 L270 765 L270 366 Z"/>
  <path fill="#00b559" d="M270 765 L435 610 L541 676 L688 487 L807 592 L807 765 Z"/>
  <path fill="#ffd619" d="M622 335 L642 335 L642 424 L722 424 L722 442 L642 442 L642 530 L622 530 L622 442 L542 442 L542 424 L622 424 Z"/>
</svg>
