<svg xmlns="http://www.w3.org/2000/svg" viewBox="0 0 96 96" width="96" height="96" role="img" aria-labelledby="title desc">
  <title id="title">理账 Ledger Icon Invert</title>
  <desc id="desc">A dark-surface RE8CH-style geometric ledger icon.</desc>
  <path d="M18 20Q18 14 24 14H66Q78 14 78 26V80H31Q18 80 18 67Z" fill="#f8fafc"/>
  <path d="M26 22H65Q70 22 70 27V63H34Q26 63 26 55Z" fill="#111827"/>
  <path d="M25 21H65Q71 21 71 27V36H25Z" fill="#60a5fa"/>
  <path d="M25 36H71V63H34Q25 63 25 54Z" fill="#0f172a"/>
  <path d="M28 70Q28 65 34 65H78V80H34Q28 80 28 74Z" fill="#34d399"/>
  <path d="M18 22Q18 15 25 15H33V80H31Q18 80 18 67Z" fill="#ff4b55"/>
  <path d="M33 65H78V72H35Q31 72 31 75Q31 78 35 78H78V80H31Q25 80 25 73Q25 65 33 65Z" fill="#f8fafc"/>
  <path d="M43 45H58M43 53H55" stroke="#f8fafc" stroke-width="5" stroke-linecap="round"/>
  <path d="M58 50L64 56L76 42" fill="none" stroke="#ffd619" stroke-width="7" stroke-linecap="round" stroke-linejoin="round"/>
  <path d="M58 50L64 56L76 42" fill="none" stroke="#f8fafc" stroke-width="11" stroke-linecap="round" stroke-linejoin="round" opacity=".18"/>
</svg>
