<svg xmlns="http://www.w3.org/2000/svg" viewBox="0 0 48 48" role="img" aria-label="AngelList">
  <path d="M20 42c-7.4-2.4-12.4-7.9-12.4-15.2 0-4.1 2.3-6.7 5.3-6.7 1.2 0 2.2.4 3.1 1.1V11.2c0-3.1 1.8-5.2 4.2-5.2s4.1 2.1 4.1 5.2v8.9l3.1-9.1c1-2.9 3.3-4.2 5.5-3.4 2.2.8 3.2 3.2 2.2 6.1l-4 11.9 2.2-.8c2.7-.9 5.2.3 6 2.6.8 2.5-.5 4.9-3.5 6.1l-7 2.7c-2.7 3.6-5.6 5.4-8.8 5.8Z" fill="none" stroke="#111827" stroke-width="3.2" stroke-linecap="round" stroke-linejoin="round"/>
  <path d="M16 21.2v9.7M24.3 20.1v8.6M13.2 28.5c3.1 2.5 6.1 3.5 10.2 3.5" fill="none" stroke="#111827" stroke-width="3.2" stroke-linecap="round" stroke-linejoin="round"/>
</svg>
