<svg xmlns="http://www.w3.org/2000/svg" viewBox="0 0 48 48" role="img" aria-label="Dun and Bradstreet">
  <rect x="6" y="6" width="36" height="36" rx="10" fill="#f8fafc"/>
  <path d="M16.8 13.8 31.2 28.2" fill="none" stroke="#32a9c8" stroke-width="4.2" stroke-linecap="round"/>
  <path d="M16.9 34.2 31.2 19.8" fill="none" stroke="#174f7a" stroke-width="4.2" stroke-linecap="round"/>
  <path d="M13.8 20.2c0-4 2.7-6.7 6.1-6.7 3.8 0 6.5 3.7 10.2 9.2 2.4 3.5 4.4 5.1 6.6 5.1 2.7 0 4.8-2.2 4.8-5.1" fill="none" stroke="#32a9c8" stroke-width="3.4" stroke-linecap="round"/>
  <path d="M34.2 27.8c0 4-2.7 6.7-6.1 6.7-3.8 0-6.5-3.7-10.2-9.2-2.4-3.5-4.4-5.1-6.6-5.1-2.7 0-4.8 2.2-4.8 5.1" fill="none" stroke="#174f7a" stroke-width="3.4" stroke-linecap="round"/>
</svg>
