<svg xmlns="http://www.w3.org/2000/svg" viewBox="0 0 96 96" width="96" height="96" role="img" aria-labelledby="title desc">
  <title id="title">Phonaid 万能接线助手 Icon No Edge</title>
  <desc id="desc">A no-edge RE8CH-style call-routing assistant product icon.</desc>
  <path d="M24 22H72V74H24Z" fill="#ffffff"/>
  <path d="M24 22H72V38H24Z" fill="#2563eb"/>
  <path d="M24 38H72V74H24Z" fill="#f8fafc"/>
  <path d="M34 31H62" stroke="#ffffff" stroke-width="6" stroke-linecap="round"/>
  <path d="M31 58Q31 44 45 44H51Q65 44 65 58V64Q65 69 60 69H55Q51 69 51 65V61Q51 57 55 57H58Q57 51 51 51H45Q39 51 38 57H41Q45 57 45 61V65Q45 69 41 69H36Q31 69 31 64Z" fill="#0f172a"/>
  <path d="M37 58Q37 50 45 50H51Q59 50 59 58V63H57V61Q57 55 51 55H45Q39 55 39 61V63H37Z" fill="#00b559"/>
  <path d="M27 63H39V72H27Z" fill="#f81018"/>
  <path d="M57 63H69V72H57Z" fill="#ffd619"/>
  <path d="M48 40V31" stroke="#ffd619" stroke-width="6" stroke-linecap="round"/>
  <path d="M31 47L24 42M65 47L72 42" stroke="#0a7fbe" stroke-width="6" stroke-linecap="round"/>
  <circle cx="48" cy="31" r="6" fill="#ffd619"/>
</svg>
