<svg xmlns="http://www.w3.org/2000/svg" viewBox="0 0 96 96" width="96" height="96" role="img" aria-labelledby="title desc">
  <title id="title">Phonaid / 万能接线助手 Icon</title>
  <desc id="desc">SF Symbols-inspired RE8CH call assistant product mark.</desc>
  <path d="M34 23Q34 13 48 13Q62 13 62 23V43Q62 53 48 53Q34 53 34 43Z" fill="#f8fafc"/>
  <path d="M41 24Q41 19 48 19Q55 19 55 24V42Q55 47 48 47Q41 47 41 42Z" fill="#111827"/>
  <path d="M23 39Q19 48 23 58" fill="none" stroke="#f81018" stroke-width="7" stroke-linecap="round"/>
  <path d="M14 34Q8 49 14 64" fill="none" stroke="#f81018" stroke-width="7" stroke-linecap="round"/>
  <path d="M73 39Q77 48 73 58" fill="none" stroke="#ffd619" stroke-width="7" stroke-linecap="round"/>
  <path d="M82 34Q88 49 82 64" fill="none" stroke="#ffd619" stroke-width="7" stroke-linecap="round"/>
  <path d="M28 49Q28 68 48 68Q68 68 68 49" fill="none" stroke="#f8fafc" stroke-width="9" stroke-linecap="round"/>
  <path d="M34 51Q34 61 48 61Q62 61 62 51" fill="none" stroke="#111827" stroke-width="8" stroke-linecap="round"/>
  <path d="M48 67V78" stroke="#f8fafc" stroke-width="8" stroke-linecap="round"/>
  <path d="M33 82H63" stroke="#f8fafc" stroke-width="8" stroke-linecap="round"/>
  <path d="M13 66H83V82Q83 88 77 88H19Q13 88 13 82Z" fill="#00b559" opacity=".96"/>
  <path d="M35 82H61" stroke="#111827" stroke-width="6" stroke-linecap="round"/>
</svg>
